<svg viewBox="0 0 100 100">
  <path class="cls-1"
    d="M100,98.75c-.13-.72-1-1-1.49-1.21l-.08,0c-1.47-.6-3-1.05-4.46-1.49-.95-.28-1.93-.57-2.88-.9,1.1.06,2.15.12,2.84.12h.2c.41,0,.81,0,1.19,0h.16a1.77,1.77,0,0,0,1.29-.32,1,1,0,0,0,.34-1c-.16-.71-1-1-1.54-1.14l-.08,0c-1.49-.53-3-.92-4.52-1.29-1.23-.31-2.5-.62-3.71-1-.43-.14-.83-.28-1.21-.43a40.7,40.7,0,0,1-5.28-2.65c-1.27-.71-2.58-1.45-3.92-2.08-.44-.2-.86-.39-1.32-.58A8.39,8.39,0,0,0,76,83.44,3.87,3.87,0,0,0,77.22,83a3.73,3.73,0,0,0,1.55-1.5,3.61,3.61,0,0,0-2.37-5.3,4,4,0,0,0-2.79.43,10.3,10.3,0,0,0-1.28-.76,11,11,0,0,0-7-.83A16.36,16.36,0,0,0,62,68.83,46.23,46.23,0,0,0,58.67,65l-8-8.32c-.53-.55-1.06-1.12-1.58-1.67l-1.07-1.15h0c-1.21-1.28-2.46-2.55-3.78-3.7a13.8,13.8,0,0,0-5-3.06,9.3,9.3,0,0,0-7.17.54c-2.11,1.16-3.31,3.11-4.46,5-.15.23-.29.47-.44.71-.68,1.08-1.37,2.25-2.06,3.46a71.08,71.08,0,0,0-3.46,6.69l-.24.58a9.73,9.73,0,0,1-1,2A38,38,0,0,1,17.33,70c-1,.94-1.78,1.71-2.59,2.41l-.23.2a27.84,27.84,0,0,0-2.26,2.11,34.62,34.62,0,0,0-3.59,4.74c-.65,1-1.23,2.07-1.79,3.09-.32.6-.66,1.22-1,1.81s-.78,1.31-1.17,2-.79,1.31-1.18,2h0c-.2.35-.39.7-.58,1s-.53,1-.8,1.43A34.15,34.15,0,0,0,.46,93.91a4.35,4.35,0,0,0-.23,3.24,2.55,2.55,0,0,0,1.51,1.38,5.06,5.06,0,0,0,1.78.26H13a6.25,6.25,0,0,0,2.53-.37,1.54,1.54,0,0,0,1-1.36,1.35,1.35,0,0,0-.15-.65,3.81,3.81,0,0,0,.93-.27,1.54,1.54,0,0,0,1-1.36,1.63,1.63,0,0,0-1-1.46,10.67,10.67,0,0,0-1.85-.64l-.74-.21-.2-.07a25.93,25.93,0,0,1-4.23-1.6l-.18-.08-.24-.14s0-.13.1-.38a6.25,6.25,0,0,1,.48-.82c.09-.13.17-.25.24-.37a14.75,14.75,0,0,1,.89-1.28l.3-.41c.29-.32.58-.64.88-1,.54-.56,1.1-1.17,1.72-1.87l1.38-1.58c.55-.64,1.1-1.3,1.65-2,.81-1,1.62-2,2.43-3l.2-.25a5.2,5.2,0,0,1,.8-.87,12.9,12.9,0,0,1,2.52-1.35l.41-.19a8.28,8.28,0,0,0,1.58-.88,5.6,5.6,0,0,0,1.14-1.21l.1-.13a18,18,0,0,1,1.81-2L30,69.62c1.24-1.17,2.52-2.37,3.7-3.68.75-.82,1.45-1.68,2.1-2.49.41-.52,1-1.16,1.55-1.84l.74-.85c.45.73.94,1.54,1.44,2.37v0c1.29,2.17,2.63,4.51,3.46,6.11.61,1.18,1.24,2.42,1.93,3.8l.75,1.51a5.19,5.19,0,0,0,1.41,4.66c2,1.81,5.4,1.3,6.29,1.13l.37.11a15.9,15.9,0,0,0,4.06.64h0l.6,0a5.44,5.44,0,0,0-.29,1.39,2.25,2.25,0,0,0,1,2.15h0a16.33,16.33,0,0,1,2,1.35,1.58,1.58,0,0,0-.16,1.41A1.17,1.17,0,0,0,62.2,88h.15c.91-.17,2.35-.44,3.09-.62a35.56,35.56,0,0,0,9.35,6.72,41,41,0,0,0,6.84,2.15c1.26.31,2.55.64,3.79,1a11.14,11.14,0,0,1,1.81.71l.61.35a8.84,8.84,0,0,0,1,.54,10.56,10.56,0,0,0,3.52.76c1.51.14,3.07.28,4.63.32h1.7a1.45,1.45,0,0,0,.95-.28A1,1,0,0,0,100,98.75ZM76.19,86.64c1.29.6,2.57,1.32,3.81,2a44,44,0,0,0,5.49,2.75c.4.16.82.3,1.28.45,1.26.41,2.56.74,3.82,1,1,.25,2,.49,2.94.78-1.16,0-3-.15-4.57-.25L87,93.32C86,92.74,85,92.1,84,91.48c-1.23-.77-2.51-1.56-3.83-2.25-.7-.37-1.42-.71-2.12-1a31.49,31.49,0,0,1-3.56-1.87c.1-.1.19-.22.28-.33C75.24,86.21,75.71,86.41,76.19,86.64Zm-.12-8.92a2,2,0,0,1,1.34,1,2.06,2.06,0,0,1,0,2.08,2.2,2.2,0,0,1-.9.89l-.34.15a6.5,6.5,0,0,0-.83-3.32,5.4,5.4,0,0,0-.5-.71A2.42,2.42,0,0,1,76.07,77.72ZM74,79.26A5,5,0,0,1,74.64,82a5.69,5.69,0,0,1-1.45,3.41,15.08,15.08,0,0,1-1.27-1.13L72,84a10.94,10.94,0,0,0-.06-2.74,13.48,13.48,0,0,0-1.36-4.46,8.49,8.49,0,0,1,1.12.46A5.27,5.27,0,0,1,74,79.26ZM68.54,76.4a12.37,12.37,0,0,1,1.83,5c0,.5.09.91.11,1.31-.45-.51-.87-1-1.29-1.54l-1.08-1.34-2.59-3.28A9.24,9.24,0,0,1,68.54,76.4Zm-19-18.67,2.62,2.74A51.52,51.52,0,0,1,44,67.84c-.76-1.41-1.78-3.2-2.8-4.93a52.65,52.65,0,0,0,6.33-7.35L48,56C48.52,56.6,49.06,57.18,49.59,57.73ZM13,97.23H4a4.81,4.81,0,0,1-1.77-.15,1,1,0,0,1-.63-.55,2.8,2.8,0,0,1,.23-2,32.38,32.38,0,0,1,1.59-3c.27-.48.55-1,.81-1.46.11-.2.22-.41.34-.61l3.4.3c-.16.25-.32.5-.47.75a3.15,3.15,0,0,1-.2.31,3.09,3.09,0,0,0-.76,2.52,1.7,1.7,0,0,0,1,1l.14.07a26.76,26.76,0,0,0,4.48,1.7l.2.06c.26.09.52.16.78.23a9.68,9.68,0,0,1,1.6.54.15.15,0,0,1,.06,0A5.13,5.13,0,0,1,13,97.23Zm1-3.39.2.06.79.23a9.68,9.68,0,0,1,1.6.54l.06,0a5.13,5.13,0,0,1-1.9.24H13.63l-.73-.21-.2-.07a25.66,25.66,0,0,1-4.24-1.59A.91.91,0,0,0,8.29,93,1.11,1.11,0,0,1,8,92.83a.84.84,0,0,1,.1-.38,6.25,6.25,0,0,1,.48-.82l0,0a2.18,2.18,0,0,0,.73.49l.13.07A27.43,27.43,0,0,0,14,93.84Zm27.47-39.2a.77.77,0,0,0-1,.37A21.46,21.46,0,0,1,37.64,59h0c-.47.57-1,1.13-1.41,1.66-.6.69-1.16,1.34-1.6,1.88-.63.79-1.31,1.63-2,2.42-1.14,1.26-2.4,2.44-3.62,3.59L27.37,70a19.52,19.52,0,0,0-1.95,2.13.76.76,0,0,0-.11.14,4.59,4.59,0,0,1-.83.91,6.94,6.94,0,0,1-1.31.71l-.39.18A13.9,13.9,0,0,0,20,75.64a6.06,6.06,0,0,0-1.08,1.14l-.19.24c-.8,1-1.61,2-2.41,2.93-.54.65-1.1,1.3-1.64,1.93l-1.36,1.57c-.61.69-1.16,1.28-1.67,1.82-.32.33-.62.66-.92,1l0,0c-.58.65-1.11,1.3-1.61,2L5.47,88,6,87.07c.39-.64.8-1.31,1.18-2s.7-1.24,1-1.84c.55-1,1.11-2,1.73-3a32.37,32.37,0,0,1,3.43-4.53,25.54,25.54,0,0,1,2.14-2l.23-.2c.83-.72,1.67-1.51,2.65-2.47a41.59,41.59,0,0,0,3.33-4.13,11.07,11.07,0,0,0,1.16-2.27l.23-.56a69.24,69.24,0,0,1,3.39-6.54c.67-1.19,1.36-2.34,2-3.41.14-.24.29-.48.44-.72,1.1-1.79,2.14-3.49,3.89-4.45a7.79,7.79,0,0,1,6-.42,12.31,12.31,0,0,1,4.4,2.76c1.11,1,2.18,2,3.22,3.1a55.9,55.9,0,0,1-6.06,7.14c-.44-.72-.86-1.42-1.25-2a20.42,20.42,0,0,0,2.67-3.85A.77.77,0,0,0,41.47,54.64ZM53.7,78.84a.81.81,0,0,0-.41,0s-3.45.78-5.13-.74c-.8-.72-1.1-1.91-.89-3.55a.72.72,0,0,0-.07-.43c-.29-.61-.6-1.21-.85-1.72-.57-1.15-1.1-2.19-1.61-3.18a51.25,51.25,0,0,0,8.53-7.63l4.3,4.48h0a32.52,32.52,0,0,1,5.63,7.58,21.7,21.7,0,0,0-1.48-1.72,6.1,6.1,0,0,0-2.58-1.69A3.75,3.75,0,0,0,58,70.09a3.85,3.85,0,0,0-2.5,1,3.8,3.8,0,0,0-1.31,2.37c-.27,2,1,3.71,2.28,5.13l.91,1A14.55,14.55,0,0,1,54.22,79Zm9.13,7.52a.9.9,0,0,0,.06-.72c-.12-.34-.44-.73-1.64-1.54l-.86-.55L60,83.31h0c-.33-.19-.34-.71-.21-1.27,1.05,1,2.09,2,3.05,2.92l1.07,1,.15.15ZM92.46,98.11a9,9,0,0,1-3-.61,8.45,8.45,0,0,1-.82-.46l-.69-.4a11.9,11.9,0,0,0-2.08-.81c-1.28-.4-2.59-.73-3.86-1a40.93,40.93,0,0,1-6.59-2.06c-4-1.8-7.28-4.88-10.45-7.87l-1.07-1c-2-1.86-4.23-4-6.29-6.3-1-1.16-2.08-2.52-1.9-3.9a2.47,2.47,0,0,1,2.32-2h0a2.16,2.16,0,0,1,.66.1A4.45,4.45,0,0,1,60.63,73c.67.69,1.29,1.49,1.9,2.26l.15.2.93,1.18h0l3.3,4.18h0L68,82.18c.79,1,1.62,2,2.54,2.91h0A19.25,19.25,0,0,0,72.75,87l.06,0a.91.91,0,0,0,.16.11,28.37,28.37,0,0,0,4.38,2.4c.68.32,1.39.66,2.06,1,1.27.66,2.52,1.44,3.73,2.19a42.72,42.72,0,0,0,5.35,3c.4.17.81.34,1.27.51,1.24.46,2.52.85,3.76,1.21,1,.29,2,.59,2.93.93C95.12,98.36,93.77,98.24,92.46,98.11Z"
    id="path1" />
</svg>