<?xml version="1.0" encoding="utf-8"?>
<svg viewBox="0 0 40 100" xmlns="http://www.w3.org/2000/svg">
  <path
    d="M 0.629 3.512 C 1.702 4.04 5.163 5.569 7.5 4.482 L 10.937 9.391 C 10.908 9.427 10.871 9.454 10.841 9.494 C 8.827 12.26 8.553 16.288 10.081 19.773 C 8.798 20.619 7.978 22.282 8.027 24.13 C 8.112 26.049 7.838 27.952 7.549 29.969 C 7.162 32.636 6.765 35.39 7.188 38.415 C 7.223 38.667 7.353 38.887 7.545 39.007 C 7.645 39.073 7.758 39.103 7.87 39.103 C 7.966 39.103 8.067 39.079 8.157 39.03 C 10.985 37.501 14.697 33.542 16.006 29.218 C 16.412 27.873 16.54 26.591 16.387 25.439 C 18.182 25.843 20.003 25.506 21.546 24.542 L 21.829 24.945 C 21.546 26.646 21.8 28.237 22.103 29.306 C 22.496 30.691 23.321 31.866 24.432 32.613 C 28.357 35.258 29.829 36.587 30.127 37.012 C 30.14 38.204 29.997 38.781 29.829 39.19 C 28.568 40.294 27.821 41.773 27.717 43.448 C 27.503 44.652 27.099 63.852 27.02 67.688 C 27.019 67.785 27.048 67.872 27.074 67.96 C 26.832 68.627 26.59 69.306 26.389 69.948 C 26.093 70.876 26.304 74.4 26.853 82.218 C 27.21 87.304 27.696 94.239 27.443 95.389 C 26.534 96.656 26.571 98.076 27.023 98.942 C 27.433 99.733 28.172 100.082 28.957 99.871 C 29.677 99.915 31.379 100 33.222 100 C 35.781 100 38.617 99.836 39.491 99.161 C 39.734 98.976 39.872 98.586 39.808 98.251 C 39.689 97.64 39.64 97.389 34.552 96.636 C 33.842 96.539 31.677 96.025 31.041 94.971 C 30.896 94.73 30.854 94.492 30.919 94.125 C 30.919 94.125 32.789 75.412 33.248 70.667 C 34.413 67.125 41.14 46.169 39.832 39.015 L 39.843 39.013 C 39.657 35.657 39.434 32.346 39.047 30.861 C 39.037 30.818 37.66 26.179 35.914 23.903 C 34.188 21.655 30.537 18.948 27.269 19.172 L 26.093 17.699 C 26.983 13.033 24.367 8.122 20.099 6.594 C 18.523 6.03 16.88 6.014 15.31 6.493 L 12.397 3.205 L 9.61 0.212 C 9.468 0.06 9.28 -0.018 9.085 0.003 C 0.194 0.957 0.091 1.758 0.008 2.402 C -0.013 2.579 -0.038 3.182 0.629 3.512 Z M 15.591 23.481 C 15.325 23.369 15.031 23.458 14.842 23.707 C 14.656 23.958 14.612 24.316 14.736 24.618 C 15.191 25.728 15.18 27.087 14.705 28.66 C 13.686 32.019 10.881 35.336 8.438 37.006 C 8.278 34.667 8.601 32.425 8.917 30.246 C 9.206 28.23 9.508 26.143 9.411 24.061 C 9.377 22.625 10.143 21.349 11.272 20.96 C 11.481 20.887 11.65 20.702 11.727 20.458 C 11.803 20.216 11.782 19.942 11.664 19.725 C 10.045 16.722 10.123 13.103 11.835 10.669 L 20.659 23.273 C 19.139 24.112 17.302 24.202 15.591 23.481 Z M 29.552 93.855 C 29.417 94.597 29.543 95.316 29.917 95.936 C 31.02 97.767 34.052 98.228 34.389 98.271 C 34.514 98.289 34.643 98.31 34.772 98.33 C 33.011 98.38 30.899 98.339 28.923 98.221 C 28.852 98.216 28.774 98.228 28.701 98.251 C 28.385 98.355 28.264 98.198 28.199 98.076 C 28.012 97.715 28.068 97.027 28.536 96.407 C 29.072 95.7 29.02 93.289 28.233 82.083 C 27.897 77.307 27.48 71.36 27.683 70.533 C 27.837 70.046 28.024 69.534 28.203 69.027 C 30.124 70.401 31.189 71.037 31.792 71.307 C 31.224 77.071 29.549 93.856 29.552 93.855 Z M 32.083 69.686 C 31.324 69.28 29.79 68.249 28.413 67.257 C 28.603 58.158 28.924 44.731 29.072 43.794 C 29.079 43.758 29.088 43.643 29.09 43.606 C 29.189 42.122 29.992 40.837 31.358 39.979 C 32.619 39.188 36.357 37.667 37.871 38.312 C 38.19 38.448 38.286 38.637 38.332 38.766 C 39.969 43.436 34.551 62.115 32.083 69.686 Z M 37.724 31.358 C 37.98 32.34 38.167 34.458 38.319 36.758 C 36.477 35.987 33.176 37.24 31.47 38.107 C 31.501 37.719 31.52 37.306 31.51 36.822 C 31.499 36.254 31.483 35.473 25.114 31.182 C 24.303 30.637 23.7 29.784 23.414 28.782 C 23.26 28.24 23.127 27.531 23.091 26.754 L 23.832 27.812 C 24.479 28.733 25.38 29.302 26.304 29.369 C 26.364 29.373 26.429 29.376 26.49 29.376 C 27.202 29.376 27.864 29.073 28.37 28.509 C 29.552 27.2 30.487 24.007 29.151 22.115 L 28.016 20.833 C 30.637 21.019 33.517 23.23 34.888 25.019 C 36.412 27.002 37.717 31.333 37.724 31.358 Z M 19.699 8.173 C 23.209 9.433 25.362 13.367 24.744 17.14 L 16.531 7.873 C 17.583 7.709 18.657 7.802 19.699 8.173 Z M 8.908 1.676 L 11.452 4.415 L 28.144 23.24 C 28.832 24.219 28.184 26.466 27.428 27.303 C 27.08 27.687 26.677 27.74 26.391 27.722 C 25.843 27.682 25.3 27.33 24.899 26.757 L 8.216 2.931 C 8.081 2.737 7.885 2.634 7.683 2.634 C 7.561 2.634 7.437 2.675 7.325 2.755 C 6.263 3.527 4.365 3.239 2.645 2.62 C 4.188 2.288 6.652 1.927 8.908 1.676 Z M 1.145 1.981 C 1.15 1.982 1.153 1.987 1.158 1.991 L 0.892 2.748 L 1.145 1.981 Z" />
</svg>